<svg width="210" height="210" viewBox="0 0 210 210" fill="none" xmlns="http://www.w3.org/2000/svg">
<path d="M65.8818 141.192L66.2559 141.214C68.1207 141.37 69.8666 142.214 71.1504 143.587L71.4004 143.868C72.5279 145.201 73.1592 146.885 73.1865 148.631L73.1826 149.006C73.1145 151.011 72.2534 152.907 70.7881 154.276H70.7871L33.2852 189.276C32.6214 189.896 31.8521 190.391 31.0146 190.738L30.6514 190.877C29.7953 191.181 28.8925 191.328 27.9863 191.312L27.5977 191.294C26.562 191.222 25.5519 190.939 24.6309 190.459C23.8249 190.04 23.1019 189.479 22.4961 188.805L22.2441 188.509L11.6211 175.384C11.0743 174.709 10.6491 173.945 10.3623 173.126L10.248 172.772C9.96613 171.82 9.8746 170.821 9.97852 169.833L10.0264 169.464C10.1594 168.607 10.4388 167.779 10.8535 167.015L11.0391 166.693C11.4899 165.952 12.0658 165.293 12.7412 164.747L13.0352 164.52C13.7353 164.008 14.5191 163.619 15.3525 163.372L15.7119 163.276C16.5544 163.071 17.4269 163.012 18.291 163.103L18.6602 163.151C19.5172 163.284 20.3456 163.564 21.1094 163.979L21.4326 164.164C22.1732 164.615 22.8322 165.19 23.3789 165.866L28.8984 172.688L60.4619 143.224L60.7432 142.975C62.1722 141.767 64.0028 141.128 65.8818 141.192ZM192.5 158.688C194.506 158.688 196.429 159.485 197.848 160.903L198.106 161.174C199.362 162.562 200.062 164.37 200.062 166.25C200.062 168.256 199.266 170.179 197.848 171.597C196.429 173.015 194.506 173.813 192.5 173.813H105C103.12 173.813 101.311 173.112 99.9238 171.856L99.6523 171.597C98.2344 170.179 97.4376 168.256 97.4375 166.25C97.4375 164.245 98.2342 162.321 99.6523 160.903C101.071 159.485 102.994 158.688 105 158.688H192.5ZM65.8818 79.9418L66.2559 79.9643C68.1207 80.1203 69.8666 80.9635 71.1504 82.3373L71.4004 82.6176C72.5279 83.9513 73.1592 85.6351 73.1865 87.3813L73.1826 87.7563C73.1145 89.7607 72.2534 91.6566 70.7881 93.0258H70.7871L33.2852 128.026C32.6214 128.646 31.8521 129.141 31.0146 129.488L30.6514 129.627C29.7953 129.931 28.8925 130.078 27.9863 130.062L27.5977 130.044C26.562 129.972 25.5519 129.689 24.6309 129.209C23.8249 128.79 23.1019 128.229 22.4961 127.555L22.2441 127.259L11.6211 114.134C11.0743 113.459 10.6491 112.695 10.3623 111.876L10.248 111.522C9.96613 110.57 9.8746 109.571 9.97852 108.583C10.0825 107.596 10.3795 106.638 10.8535 105.765L11.0391 105.443C11.4899 104.702 12.0658 104.043 12.7412 103.497L13.0352 103.27C13.7353 102.758 14.519 102.369 15.3525 102.122C16.3048 101.841 17.3034 101.749 18.291 101.853L18.6602 101.901C19.5172 102.034 20.3456 102.314 21.1094 102.729L21.4326 102.914C22.1734 103.364 22.8321 103.94 23.3789 104.616L28.8984 111.438L60.4619 81.9741L60.7432 81.725C62.1722 80.517 64.0028 79.878 65.8818 79.9418ZM192.5 97.4379C194.506 97.4379 196.429 98.2345 197.848 99.6528L198.106 99.9243C199.362 101.312 200.062 103.12 200.062 105C200.062 106.881 199.362 108.688 198.106 110.076L197.848 110.347C196.429 111.765 194.506 112.563 192.5 112.563H105C102.994 112.563 101.071 111.765 99.6523 110.347C98.2344 108.929 97.4376 107.006 97.4375 105C97.4375 102.995 98.2342 101.071 99.6523 99.6528C101.071 98.2345 102.994 97.4379 105 97.4379H192.5ZM65.8818 18.6918L66.2559 18.7143C68.1207 18.8703 69.8666 19.7135 71.1504 21.0873L71.4004 21.3676C72.6084 22.7966 73.2463 24.6274 73.1826 26.5063C73.1145 28.5107 72.2534 30.4066 70.7881 31.7758H70.7871L33.2852 66.7758C32.6214 67.3961 31.8521 67.891 31.0146 68.2377L30.6514 68.3774C29.7953 68.6812 28.8925 68.8282 27.9863 68.812L27.5977 68.7944C26.562 68.7224 25.5519 68.4386 24.6309 67.9594C23.8249 67.5401 23.1019 66.9794 22.4961 66.3051L22.2441 66.0092L11.6211 52.8842C11.0743 52.2088 10.6491 51.4447 10.3623 50.6264L10.248 50.2719C9.96613 49.3196 9.8746 48.3211 9.97852 47.3334L10.0264 46.9614C10.3142 45.112 11.2796 43.4298 12.7412 42.2465L13.0381 42.018C14.5493 40.9138 16.4208 40.4063 18.291 40.603C20.286 40.8129 22.1167 41.8066 23.3789 43.3657L28.8984 50.1879L60.4619 20.7241L60.7432 20.475C62.1722 19.267 64.0028 18.628 65.8818 18.6918ZM192.5 36.1879C194.506 36.1879 196.429 36.9845 197.848 38.4028L198.106 38.6743C199.362 40.0615 200.062 41.8702 200.062 43.7504C200.062 45.6305 199.362 47.4385 198.106 48.8256L197.848 49.0971C196.429 50.5154 194.506 51.3129 192.5 51.3129H105C102.994 51.3129 101.071 50.5153 99.6523 49.0971C98.2344 47.679 97.4376 45.7558 97.4375 43.7504C97.4375 41.7448 98.2342 39.821 99.6523 38.4028C101.071 36.9845 102.994 36.1879 105 36.1879H192.5Z" fill="#003A69" stroke="#003A69" stroke-width="2"/>
</svg>
